<mxfile host="app.diagrams.net" modified="2024-01-17T15:28:48.186Z" agent="Mozilla/5.0 (Macintosh; Intel Mac OS X 10_15_7) AppleWebKit/537.36 (KHTML, like Gecko) Chrome/120.0.0.0 Safari/537.36" version="22.1.21" etag="f_cmx4LXwEA8fF1eud13" type="github">
  <diagram name="Page-1" id="X2Tf0_i3hydo38q060Bv">
    <mxGraphModel>
      <root>
        <mxCell id="0" />
        <mxCell id="1" parent="0" />
      </root>
    </mxGraphModel>
  </diagram>
</mxfile>
